<svg xmlns="http://www.w3.org/2000/svg" xmlns:xlink="http://www.w3.org/1999/xlink" width="500" zoomAndPan="magnify" viewBox="0 0 375 374.999991" height="500" preserveAspectRatio="xMidYMid meet" version="1.0"><defs><g/></defs><g fill="#1c2120" fill-opacity="1"><g transform="translate(145.129447, 194.572437)"><g><path d="M 80.03125 -77.015625 C 77.34375 -76.867188 75.382812 -76.570312 74.15625 -76.125 C 72.925781 -75.675781 72.085938 -74.816406 71.640625 -73.546875 C 71.191406 -72.273438 70.96875 -70.222656 70.96875 -67.390625 L 70.96875 -11.859375 C 70.96875 -9.023438 71.191406 -6.972656 71.640625 -5.703125 C 72.085938 -4.441406 72.925781 -3.585938 74.15625 -3.140625 C 75.382812 -2.691406 77.34375 -2.390625 80.03125 -2.234375 L 80.03125 0 C 76.894531 -0.21875 72.117188 -0.328125 65.703125 -0.328125 C 59.660156 -0.328125 54.921875 -0.21875 51.484375 0 L 51.484375 -2.234375 C 54.171875 -2.390625 56.128906 -2.691406 57.359375 -3.140625 C 58.597656 -3.585938 59.441406 -4.441406 59.890625 -5.703125 C 60.335938 -6.972656 60.5625 -9.023438 60.5625 -11.859375 L 60.5625 -38.734375 L 24.171875 -38.734375 L 24.171875 -11.859375 C 24.171875 -9.023438 24.394531 -6.972656 24.84375 -5.703125 C 25.289062 -4.441406 26.128906 -3.585938 27.359375 -3.140625 C 28.597656 -2.691406 30.5625 -2.390625 33.25 -2.234375 L 33.25 0 C 29.8125 -0.21875 25.070312 -0.328125 19.03125 -0.328125 C 12.613281 -0.328125 7.835938 -0.21875 4.703125 0 L 4.703125 -2.234375 C 7.390625 -2.390625 9.347656 -2.691406 10.578125 -3.140625 C 11.804688 -3.585938 12.644531 -4.441406 13.09375 -5.703125 C 13.539062 -6.972656 13.765625 -9.023438 13.765625 -11.859375 L 13.765625 -67.390625 C 13.765625 -70.222656 13.539062 -72.273438 13.09375 -73.546875 C 12.644531 -74.816406 11.804688 -75.675781 10.578125 -76.125 C 9.347656 -76.570312 7.390625 -76.867188 4.703125 -77.015625 L 4.703125 -79.25 C 7.835938 -79.03125 12.613281 -78.921875 19.03125 -78.921875 C 25 -78.921875 29.738281 -79.03125 33.25 -79.25 L 33.25 -77.015625 C 30.5625 -76.867188 28.597656 -76.570312 27.359375 -76.125 C 26.128906 -75.675781 25.289062 -74.816406 24.84375 -73.546875 C 24.394531 -72.273438 24.171875 -70.222656 24.171875 -67.390625 L 24.171875 -40.96875 L 60.5625 -40.96875 L 60.5625 -67.390625 C 60.5625 -70.222656 60.335938 -72.273438 59.890625 -73.546875 C 59.441406 -74.816406 58.597656 -75.675781 57.359375 -76.125 C 56.128906 -76.570312 54.171875 -76.867188 51.484375 -77.015625 L 51.484375 -79.25 C 54.921875 -79.03125 59.660156 -78.921875 65.703125 -78.921875 C 72.117188 -78.921875 76.894531 -79.03125 80.03125 -79.25 Z M 80.03125 -77.015625 "/></g></g></g><g fill="#1c2120" fill-opacity="1"><g transform="translate(168.665883, 178.072114)"><g><path d="M 42.40625 -81.421875 C 46.832031 -81.421875 50.472656 -80.800781 53.328125 -79.5625 C 56.191406 -78.320312 59.316406 -76.5 62.703125 -74.09375 C 63.671875 -73.332031 64.421875 -72.953125 64.953125 -72.953125 C 66.378906 -72.953125 67.316406 -75.25 67.765625 -79.84375 L 70.359375 -79.84375 C 70.066406 -74.957031 69.921875 -66.3125 69.921875 -53.90625 L 67.328125 -53.90625 C 66.648438 -57.882812 65.929688 -61.171875 65.171875 -63.765625 C 64.421875 -66.359375 63.257812 -68.632812 61.6875 -70.59375 C 59.5 -73.300781 56.65625 -75.441406 53.15625 -77.015625 C 49.664062 -78.597656 46.003906 -79.390625 42.171875 -79.390625 C 37.210938 -79.390625 32.851562 -77.769531 29.09375 -74.53125 C 25.332031 -71.300781 22.4375 -66.695312 20.40625 -60.71875 C 18.375 -54.75 17.359375 -47.78125 17.359375 -39.8125 C 17.359375 -26.28125 19.519531 -16.375 23.84375 -10.09375 C 28.164062 -3.8125 34.953125 -0.671875 44.203125 -0.671875 C 48.710938 -0.671875 52.625 -1.835938 55.9375 -4.171875 C 57.289062 -5.078125 58.171875 -5.960938 58.578125 -6.828125 C 58.992188 -7.691406 59.203125 -8.875 59.203125 -10.375 L 59.203125 -21.203125 C 59.203125 -24.359375 58.898438 -26.648438 58.296875 -28.078125 C 57.691406 -29.503906 56.640625 -30.476562 55.140625 -31 C 53.640625 -31.53125 51.195312 -31.875 47.8125 -32.03125 L 47.8125 -34.28125 C 51.71875 -34.050781 57.019531 -33.9375 63.71875 -33.9375 C 68.820312 -33.9375 72.726562 -34.050781 75.4375 -34.28125 L 75.4375 -32.03125 C 73.707031 -31.875 72.445312 -31.570312 71.65625 -31.125 C 70.875 -30.675781 70.347656 -29.8125 70.078125 -28.53125 C 69.816406 -27.25 69.6875 -25.179688 69.6875 -22.328125 L 69.6875 0 L 67.4375 0 C 67.363281 -1.5 67.0625 -2.941406 66.53125 -4.328125 C 66.007812 -5.722656 65.296875 -6.421875 64.390625 -6.421875 C 63.941406 -6.421875 63.488281 -6.304688 63.03125 -6.078125 C 62.582031 -5.859375 61.796875 -5.335938 60.671875 -4.515625 C 58.035156 -2.484375 55.304688 -0.960938 52.484375 0.046875 C 49.671875 1.066406 46.535156 1.578125 43.078125 1.578125 C 35.335938 1.578125 28.703125 -0.015625 23.171875 -3.203125 C 17.648438 -6.398438 13.421875 -11.003906 10.484375 -17.015625 C 7.554688 -23.035156 6.09375 -30.21875 6.09375 -38.5625 C 6.09375 -47.132812 7.648438 -54.671875 10.765625 -61.171875 C 13.890625 -67.671875 18.191406 -72.671875 23.671875 -76.171875 C 29.160156 -79.671875 35.40625 -81.421875 42.40625 -81.421875 Z M 42.40625 -81.421875 "/></g></g></g></svg>