<svg xmlns="http://www.w3.org/2000/svg" xmlns:xlink="http://www.w3.org/1999/xlink" width="500" zoomAndPan="magnify" viewBox="0 0 375 374.999991" height="500" preserveAspectRatio="xMidYMid meet" version="1.0"><defs><g/></defs><g fill="#ffffff" fill-opacity="1"><g transform="translate(139.152674, 198.542034)"><g><path d="M 82.84375 -79.71875 C 80.0625 -79.5625 78.035156 -79.25 76.765625 -78.78125 C 75.492188 -78.320312 74.625 -77.4375 74.15625 -76.125 C 73.695312 -74.8125 73.46875 -72.6875 73.46875 -69.75 L 73.46875 -12.28125 C 73.46875 -9.34375 73.695312 -7.21875 74.15625 -5.90625 C 74.625 -4.59375 75.492188 -3.703125 76.765625 -3.234375 C 78.035156 -2.773438 80.0625 -2.46875 82.84375 -2.3125 L 82.84375 0 C 79.601562 -0.226562 74.660156 -0.34375 68.015625 -0.34375 C 61.753906 -0.34375 56.847656 -0.226562 53.296875 0 L 53.296875 -2.3125 C 56.078125 -2.46875 58.101562 -2.773438 59.375 -3.234375 C 60.65625 -3.703125 61.523438 -4.59375 61.984375 -5.90625 C 62.453125 -7.21875 62.6875 -9.34375 62.6875 -12.28125 L 62.6875 -40.09375 L 25.03125 -40.09375 L 25.03125 -12.28125 C 25.03125 -9.34375 25.257812 -7.21875 25.71875 -5.90625 C 26.1875 -4.59375 27.054688 -3.703125 28.328125 -3.234375 C 29.609375 -2.773438 31.640625 -2.46875 34.421875 -2.3125 L 34.421875 0 C 30.859375 -0.226562 25.953125 -0.34375 19.703125 -0.34375 C 13.054688 -0.34375 8.109375 -0.226562 4.859375 0 L 4.859375 -2.3125 C 7.640625 -2.46875 9.664062 -2.773438 10.9375 -3.234375 C 12.21875 -3.703125 13.085938 -4.59375 13.546875 -5.90625 C 14.015625 -7.21875 14.25 -9.34375 14.25 -12.28125 L 14.25 -69.75 C 14.25 -72.6875 14.015625 -74.8125 13.546875 -76.125 C 13.085938 -77.4375 12.21875 -78.320312 10.9375 -78.78125 C 9.664062 -79.25 7.640625 -79.5625 4.859375 -79.71875 L 4.859375 -82.046875 C 8.109375 -81.804688 13.054688 -81.6875 19.703125 -81.6875 C 25.878906 -81.6875 30.785156 -81.804688 34.421875 -82.046875 L 34.421875 -79.71875 C 31.640625 -79.5625 29.609375 -79.25 28.328125 -78.78125 C 27.054688 -78.320312 26.1875 -77.4375 25.71875 -76.125 C 25.257812 -74.8125 25.03125 -72.6875 25.03125 -69.75 L 25.03125 -42.40625 L 62.6875 -42.40625 L 62.6875 -69.75 C 62.6875 -72.6875 62.453125 -74.8125 61.984375 -76.125 C 61.523438 -77.4375 60.65625 -78.320312 59.375 -78.78125 C 58.101562 -79.25 56.078125 -79.5625 53.296875 -79.71875 L 53.296875 -82.046875 C 56.847656 -81.804688 61.753906 -81.6875 68.015625 -81.6875 C 74.660156 -81.6875 79.601562 -81.804688 82.84375 -82.046875 Z M 82.84375 -79.71875 "/></g></g></g><g fill="#ffffff" fill-opacity="1"><g transform="translate(168.750493, 178.869694)"><g><path d="M 42.46875 -81.546875 C 46.914062 -81.546875 50.566406 -80.925781 53.421875 -79.6875 C 56.285156 -78.445312 59.410156 -76.617188 62.796875 -74.203125 C 63.773438 -73.453125 64.53125 -73.078125 65.0625 -73.078125 C 66.488281 -73.078125 67.429688 -75.375 67.890625 -79.96875 L 70.484375 -79.96875 C 70.179688 -75.070312 70.03125 -66.410156 70.03125 -53.984375 L 67.4375 -53.984375 C 66.757812 -57.984375 66.039062 -61.28125 65.28125 -63.875 C 64.53125 -66.46875 63.363281 -68.742188 61.78125 -70.703125 C 59.601562 -73.421875 56.757812 -75.566406 53.25 -77.140625 C 49.75 -78.722656 46.082031 -79.515625 42.25 -79.515625 C 37.28125 -79.515625 32.910156 -77.894531 29.140625 -74.65625 C 25.378906 -71.425781 22.476562 -66.816406 20.4375 -60.828125 C 18.40625 -54.835938 17.390625 -47.851562 17.390625 -39.875 C 17.390625 -26.320312 19.554688 -16.398438 23.890625 -10.109375 C 28.222656 -3.816406 35.019531 -0.671875 44.28125 -0.671875 C 48.800781 -0.671875 52.71875 -1.835938 56.03125 -4.171875 C 57.382812 -5.078125 58.265625 -5.960938 58.671875 -6.828125 C 59.085938 -7.691406 59.296875 -8.878906 59.296875 -10.390625 L 59.296875 -21.234375 C 59.296875 -24.398438 58.992188 -26.695312 58.390625 -28.125 C 57.796875 -29.550781 56.742188 -30.53125 55.234375 -31.0625 C 53.722656 -31.59375 51.273438 -31.929688 47.890625 -32.078125 L 47.890625 -34.34375 C 51.804688 -34.113281 57.113281 -34 63.8125 -34 C 68.9375 -34 72.851562 -34.113281 75.5625 -34.34375 L 75.5625 -32.078125 C 73.832031 -31.929688 72.570312 -31.628906 71.78125 -31.171875 C 70.988281 -30.722656 70.460938 -29.859375 70.203125 -28.578125 C 69.941406 -27.296875 69.8125 -25.222656 69.8125 -22.359375 L 69.8125 0 L 67.546875 0 C 67.472656 -1.507812 67.171875 -2.957031 66.640625 -4.34375 C 66.117188 -5.738281 65.40625 -6.4375 64.5 -6.4375 C 64.039062 -6.4375 63.585938 -6.320312 63.140625 -6.09375 C 62.691406 -5.875 61.898438 -5.347656 60.765625 -4.515625 C 58.128906 -2.484375 55.398438 -0.960938 52.578125 0.046875 C 49.753906 1.066406 46.609375 1.578125 43.140625 1.578125 C 35.390625 1.578125 28.742188 -0.0195312 23.203125 -3.21875 C 17.671875 -6.414062 13.4375 -11.023438 10.5 -17.046875 C 7.5625 -23.078125 6.09375 -30.269531 6.09375 -38.625 C 6.09375 -47.207031 7.65625 -54.753906 10.78125 -61.265625 C 13.90625 -67.785156 18.21875 -72.796875 23.71875 -76.296875 C 29.21875 -79.796875 35.46875 -81.546875 42.46875 -81.546875 Z M 42.46875 -81.546875 "/></g></g></g></svg>