<svg xmlns="http://www.w3.org/2000/svg" xmlns:xlink="http://www.w3.org/1999/xlink" width="500" zoomAndPan="magnify" viewBox="0 0 375 374.999991" height="500" preserveAspectRatio="xMidYMid meet" version="1.0"><defs><g/><clipPath id="81571dd6f6"><path d="M 177.203125 103.042969 L 197.796875 103.042969 L 197.796875 132.429688 L 177.203125 132.429688 Z M 177.203125 103.042969 " clip-rule="nonzero"/></clipPath><clipPath id="a261083c42"><path d="M 177.203125 177.714844 L 197.796875 177.714844 L 197.796875 207 L 177.203125 207 Z M 177.203125 177.714844 " clip-rule="nonzero"/></clipPath></defs><g fill="#1c2120" fill-opacity="1"><g transform="translate(145.129447, 194.572437)"><g><path d="M 80.03125 -77.015625 C 77.34375 -76.867188 75.382812 -76.570312 74.15625 -76.125 C 72.925781 -75.675781 72.085938 -74.816406 71.640625 -73.546875 C 71.191406 -72.273438 70.96875 -70.222656 70.96875 -67.390625 L 70.96875 -11.859375 C 70.96875 -9.023438 71.191406 -6.972656 71.640625 -5.703125 C 72.085938 -4.441406 72.925781 -3.585938 74.15625 -3.140625 C 75.382812 -2.691406 77.34375 -2.390625 80.03125 -2.234375 L 80.03125 0 C 76.894531 -0.21875 72.117188 -0.328125 65.703125 -0.328125 C 59.660156 -0.328125 54.921875 -0.21875 51.484375 0 L 51.484375 -2.234375 C 54.171875 -2.390625 56.128906 -2.691406 57.359375 -3.140625 C 58.597656 -3.585938 59.441406 -4.441406 59.890625 -5.703125 C 60.335938 -6.972656 60.5625 -9.023438 60.5625 -11.859375 L 60.5625 -38.734375 L 24.171875 -38.734375 L 24.171875 -11.859375 C 24.171875 -9.023438 24.394531 -6.972656 24.84375 -5.703125 C 25.289062 -4.441406 26.128906 -3.585938 27.359375 -3.140625 C 28.597656 -2.691406 30.5625 -2.390625 33.25 -2.234375 L 33.25 0 C 29.8125 -0.21875 25.070312 -0.328125 19.03125 -0.328125 C 12.613281 -0.328125 7.835938 -0.21875 4.703125 0 L 4.703125 -2.234375 C 7.390625 -2.390625 9.347656 -2.691406 10.578125 -3.140625 C 11.804688 -3.585938 12.644531 -4.441406 13.09375 -5.703125 C 13.539062 -6.972656 13.765625 -9.023438 13.765625 -11.859375 L 13.765625 -67.390625 C 13.765625 -70.222656 13.539062 -72.273438 13.09375 -73.546875 C 12.644531 -74.816406 11.804688 -75.675781 10.578125 -76.125 C 9.347656 -76.570312 7.390625 -76.867188 4.703125 -77.015625 L 4.703125 -79.25 C 7.835938 -79.03125 12.613281 -78.921875 19.03125 -78.921875 C 25 -78.921875 29.738281 -79.03125 33.25 -79.25 L 33.25 -77.015625 C 30.5625 -76.867188 28.597656 -76.570312 27.359375 -76.125 C 26.128906 -75.675781 25.289062 -74.816406 24.84375 -73.546875 C 24.394531 -72.273438 24.171875 -70.222656 24.171875 -67.390625 L 24.171875 -40.96875 L 60.5625 -40.96875 L 60.5625 -67.390625 C 60.5625 -70.222656 60.335938 -72.273438 59.890625 -73.546875 C 59.441406 -74.816406 58.597656 -75.675781 57.359375 -76.125 C 56.128906 -76.570312 54.171875 -76.867188 51.484375 -77.015625 L 51.484375 -79.25 C 54.921875 -79.03125 59.660156 -78.921875 65.703125 -78.921875 C 72.117188 -78.921875 76.894531 -79.03125 80.03125 -79.25 Z M 80.03125 -77.015625 "/></g></g></g><g clip-path="url(#81571dd6f6)"><path fill="#ffffff" d="M 177.203125 103.042969 L 197.667969 103.042969 L 197.667969 132.273438 L 177.203125 132.273438 Z M 177.203125 103.042969 " fill-opacity="1" fill-rule="nonzero"/></g><g clip-path="url(#a261083c42)"><path fill="#ffffff" d="M 177.203125 177.714844 L 197.667969 177.714844 L 197.667969 206.945312 L 177.203125 206.945312 Z M 177.203125 177.714844 " fill-opacity="1" fill-rule="nonzero"/></g><g fill="#1c2120" fill-opacity="1"><g transform="translate(170.010901, 175.754681)"><g><path d="M 42.40625 -81.421875 C 46.832031 -81.421875 50.472656 -80.800781 53.328125 -79.5625 C 56.191406 -78.320312 59.316406 -76.5 62.703125 -74.09375 C 63.671875 -73.332031 64.421875 -72.953125 64.953125 -72.953125 C 66.378906 -72.953125 67.316406 -75.25 67.765625 -79.84375 L 70.359375 -79.84375 C 70.066406 -74.957031 69.921875 -66.3125 69.921875 -53.90625 L 67.328125 -53.90625 C 66.648438 -57.882812 65.929688 -61.171875 65.171875 -63.765625 C 64.421875 -66.359375 63.257812 -68.632812 61.6875 -70.59375 C 59.5 -73.300781 56.65625 -75.441406 53.15625 -77.015625 C 49.664062 -78.597656 46.003906 -79.390625 42.171875 -79.390625 C 37.210938 -79.390625 32.851562 -77.769531 29.09375 -74.53125 C 25.332031 -71.300781 22.4375 -66.695312 20.40625 -60.71875 C 18.375 -54.75 17.359375 -47.78125 17.359375 -39.8125 C 17.359375 -26.28125 19.519531 -16.375 23.84375 -10.09375 C 28.164062 -3.8125 34.953125 -0.671875 44.203125 -0.671875 C 48.710938 -0.671875 52.625 -1.835938 55.9375 -4.171875 C 57.289062 -5.078125 58.171875 -5.960938 58.578125 -6.828125 C 58.992188 -7.691406 59.203125 -8.875 59.203125 -10.375 L 59.203125 -21.203125 C 59.203125 -24.359375 58.898438 -26.648438 58.296875 -28.078125 C 57.691406 -29.503906 56.640625 -30.476562 55.140625 -31 C 53.640625 -31.53125 51.195312 -31.875 47.8125 -32.03125 L 47.8125 -34.28125 C 51.71875 -34.050781 57.019531 -33.9375 63.71875 -33.9375 C 68.820312 -33.9375 72.726562 -34.050781 75.4375 -34.28125 L 75.4375 -32.03125 C 73.707031 -31.875 72.445312 -31.570312 71.65625 -31.125 C 70.875 -30.675781 70.347656 -29.8125 70.078125 -28.53125 C 69.816406 -27.25 69.6875 -25.179688 69.6875 -22.328125 L 69.6875 0 L 67.4375 0 C 67.363281 -1.5 67.0625 -2.941406 66.53125 -4.328125 C 66.007812 -5.722656 65.296875 -6.421875 64.390625 -6.421875 C 63.941406 -6.421875 63.488281 -6.304688 63.03125 -6.078125 C 62.582031 -5.859375 61.796875 -5.335938 60.671875 -4.515625 C 58.035156 -2.484375 55.304688 -0.960938 52.484375 0.046875 C 49.671875 1.066406 46.535156 1.578125 43.078125 1.578125 C 35.335938 1.578125 28.703125 -0.015625 23.171875 -3.203125 C 17.648438 -6.398438 13.421875 -11.003906 10.484375 -17.015625 C 7.554688 -23.035156 6.09375 -30.21875 6.09375 -38.5625 C 6.09375 -47.132812 7.648438 -54.671875 10.765625 -61.171875 C 13.890625 -67.671875 18.191406 -72.671875 23.671875 -76.171875 C 29.160156 -79.671875 35.40625 -81.421875 42.40625 -81.421875 Z M 42.40625 -81.421875 "/></g></g></g><g fill="#1c2120" fill-opacity="1"><g transform="translate(90.006789, 225.947006)"><g><path d="M 12.890625 -15.089844 L 12.890625 -7.867188 L 3.988281 -7.867188 L 3.988281 -15.089844 L 2.070312 -15.089844 L 2.070312 0 L 3.988281 0 L 3.988281 -7.4375 L 12.890625 -7.4375 L 12.890625 0 L 14.808594 0 L 14.808594 -15.089844 Z M 12.890625 -15.089844 "/></g></g></g><g fill="#1c2120" fill-opacity="1"><g transform="translate(106.881089, 225.947006)"><g><path d="M 8.492188 0.214844 C 12.222656 0.214844 14.484375 -2.089844 14.484375 -5.605469 L 14.484375 -15.089844 L 13.96875 -15.089844 L 13.96875 -5.625 C 13.96875 -2.5 12.050781 -0.472656 8.96875 -0.472656 C 5.882812 -0.472656 3.835938 -2.5 3.835938 -5.625 L 3.835938 -15.089844 L 1.917969 -15.089844 L 1.917969 -5.972656 C 1.917969 -2.242188 4.632812 0.214844 8.492188 0.214844 Z M 8.492188 0.214844 "/></g></g></g><g fill="#1c2120" fill-opacity="1"><g transform="translate(123.281273, 225.947006)"><g><path d="M 15.21875 -15.089844 L 9.699219 -5.972656 L 4.160156 -15.089844 L 2.070312 -15.089844 L 2.070312 0 L 2.585938 0 L 2.585938 -14.140625 L 8.773438 -3.921875 L 9.117188 -3.921875 L 15.304688 -14.140625 L 15.304688 0 L 17.222656 0 L 17.222656 -15.089844 Z M 15.21875 -15.089844 "/></g></g></g><g fill="#1c2120" fill-opacity="1"><g transform="translate(142.56927, 225.947006)"><g><path d="M 10 -7.824219 C 11.964844 -8.386719 13.277344 -9.679688 13.277344 -11.382812 C 13.277344 -13.449219 11.316406 -15.089844 8.664062 -15.089844 L 2.070312 -15.089844 L 2.070312 0 L 9.3125 0 C 11.917969 0 13.925781 -1.660156 13.925781 -3.921875 C 13.925781 -5.90625 12.308594 -7.371094 10 -7.824219 Z M 8.125 -14.65625 C 10.023438 -14.65625 11.273438 -13.34375 11.273438 -11.292969 C 11.273438 -9.203125 9.914062 -7.976562 7.804688 -7.976562 L 3.988281 -7.976562 L 3.988281 -14.65625 Z M 8.773438 -0.429688 L 3.988281 -0.429688 L 3.988281 -7.542969 L 8.449219 -7.542969 C 10.324219 -7.542969 11.917969 -6.378906 11.917969 -3.902344 C 11.917969 -1.789062 10.667969 -0.429688 8.773438 -0.429688 Z M 8.773438 -0.429688 "/></g></g></g><g fill="#1c2120" fill-opacity="1"><g transform="translate(157.310038, 225.947006)"><g><path d="M 3.988281 -0.429688 L 3.988281 -15.089844 L 2.070312 -15.089844 L 2.070312 0 L 12.15625 0 L 12.15625 -0.429688 Z M 3.988281 -0.429688 "/></g></g></g><g fill="#1c2120" fill-opacity="1"><g transform="translate(170.218984, 225.947006)"><g><path d="M 3.988281 -0.429688 L 3.988281 -7.4375 L 10.757812 -7.4375 L 10.757812 -7.867188 L 3.988281 -7.867188 L 3.988281 -14.65625 L 12.480469 -14.65625 L 12.480469 -15.089844 L 2.070312 -15.089844 L 2.070312 0 L 12.695312 0 L 12.695312 -0.429688 Z M 3.988281 -0.429688 "/></g></g></g><g fill="#1c2120" fill-opacity="1"><g transform="translate(183.774452, 225.947006)"><g/></g></g><g fill="#1c2120" fill-opacity="1"><g transform="translate(189.571628, 225.947006)"><g><path d="M 13.472656 -6.378906 L 13.472656 -2.285156 C 12.890625 -0.992188 11.359375 -0.214844 9.3125 -0.214844 C 5.519531 -0.214844 3.082031 -3.105469 3.082031 -7.480469 C 3.082031 -11.964844 5.582031 -14.785156 9.679688 -14.785156 C 11.789062 -14.785156 13.40625 -14.03125 13.988281 -12.738281 C 13.925781 -12.761719 13.882812 -12.761719 13.816406 -12.761719 C 13.128906 -12.761719 12.632812 -12.285156 12.632812 -11.617188 C 12.632812 -10.949219 13.128906 -10.476562 13.816406 -10.476562 C 14.441406 -10.476562 14.917969 -10.949219 14.917969 -11.617188 C 14.917969 -13.730469 12.4375 -15.304688 9.203125 -15.304688 C 4.503906 -15.304688 1.078125 -11.964844 1.078125 -7.542969 C 1.078125 -3.125 4.546875 0.214844 9.097656 0.214844 C 11.207031 0.214844 13.019531 -0.472656 13.902344 -1.53125 L 15.132812 0 L 15.347656 0 L 15.347656 -6.378906 Z M 13.472656 -6.378906 "/></g></g></g><g fill="#1c2120" fill-opacity="1"><g transform="translate(206.596785, 225.947006)"><g><path d="M 3.988281 -0.429688 L 3.988281 -15.089844 L 2.070312 -15.089844 L 2.070312 0 L 12.15625 0 L 12.15625 -0.429688 Z M 3.988281 -0.429688 "/></g></g></g><g fill="#1c2120" fill-opacity="1"><g transform="translate(219.505731, 225.947006)"><g><path d="M 8.921875 0.214844 C 13.429688 0.214844 16.792969 -3.125 16.792969 -7.542969 C 16.792969 -11.964844 13.429688 -15.304688 8.921875 -15.304688 C 4.441406 -15.304688 1.078125 -11.964844 1.078125 -7.542969 C 1.078125 -3.125 4.441406 0.214844 8.921875 0.214844 Z M 8.921875 -0.214844 C 5.410156 -0.214844 3.082031 -3.125 3.082031 -7.542969 C 3.082031 -11.964844 5.410156 -14.871094 8.921875 -14.871094 C 12.457031 -14.871094 14.785156 -11.964844 14.785156 -7.542969 C 14.785156 -3.125 12.457031 -0.214844 8.921875 -0.214844 Z M 8.921875 -0.214844 "/></g></g></g><g fill="#1c2120" fill-opacity="1"><g transform="translate(237.371376, 225.947006)"><g><path d="M 13.191406 -1.636719 L 11.25 -4.9375 C 10.820312 -5.691406 9.980469 -6.230469 8.945312 -6.53125 C 11.597656 -6.855469 13.472656 -8.558594 13.472656 -10.800781 C 13.472656 -13.257812 11.121094 -15.089844 7.996094 -15.089844 L 2.070312 -15.089844 L 2.070312 0 L 3.988281 0 L 3.988281 -6.464844 L 7.652344 -6.464844 C 8.210938 -6.207031 8.664062 -5.753906 8.96875 -5.257812 L 11.25 -1.25 C 11.511719 -0.796875 11.875 -0.34375 12.371094 0 L 14.570312 0 C 14.117188 -0.324219 13.558594 -0.96875 13.191406 -1.636719 Z M 3.988281 -14.65625 L 7.628906 -14.65625 C 9.9375 -14.65625 11.46875 -13.128906 11.46875 -10.777344 C 11.46875 -8.429688 9.9375 -6.898438 7.628906 -6.898438 L 3.988281 -6.898438 Z M 3.988281 -14.65625 "/></g></g></g><g fill="#1c2120" fill-opacity="1"><g transform="translate(252.112144, 225.947006)"><g><path d="M 2.070312 0 L 3.988281 0 L 3.988281 -15.089844 L 2.070312 -15.089844 Z M 2.070312 0 "/></g></g></g><g fill="#1c2120" fill-opacity="1"><g transform="translate(258.146373, 225.947006)"><g><path d="M 8.921875 0.214844 C 13.429688 0.214844 16.792969 -3.125 16.792969 -7.542969 C 16.792969 -11.964844 13.429688 -15.304688 8.921875 -15.304688 C 4.441406 -15.304688 1.078125 -11.964844 1.078125 -7.542969 C 1.078125 -3.125 4.441406 0.214844 8.921875 0.214844 Z M 8.921875 -0.214844 C 5.410156 -0.214844 3.082031 -3.125 3.082031 -7.542969 C 3.082031 -11.964844 5.410156 -14.871094 8.921875 -14.871094 C 12.457031 -14.871094 14.785156 -11.964844 14.785156 -7.542969 C 14.785156 -3.125 12.457031 -0.214844 8.921875 -0.214844 Z M 8.921875 -0.214844 "/></g></g></g><g fill="#1c2120" fill-opacity="1"><g transform="translate(276.012018, 225.947006)"><g><path d="M 8.492188 0.214844 C 12.222656 0.214844 14.484375 -2.089844 14.484375 -5.605469 L 14.484375 -15.089844 L 13.96875 -15.089844 L 13.96875 -5.625 C 13.96875 -2.5 12.050781 -0.472656 8.96875 -0.472656 C 5.882812 -0.472656 3.835938 -2.5 3.835938 -5.625 L 3.835938 -15.089844 L 1.917969 -15.089844 L 1.917969 -5.972656 C 1.917969 -2.242188 4.632812 0.214844 8.492188 0.214844 Z M 8.492188 0.214844 "/></g></g></g><g fill="#1c2120" fill-opacity="1"><g transform="translate(292.412202, 225.947006)"><g><path d="M 7.285156 -8.363281 C 5.152344 -9.203125 2.996094 -10.085938 2.996094 -11.941406 C 2.996094 -13.578125 4.675781 -14.828125 6.917969 -14.828125 C 8.644531 -14.828125 10.042969 -14.140625 10.625 -13.128906 L 10.539062 -13.128906 C 9.894531 -13.128906 9.417969 -12.675781 9.417969 -12.050781 C 9.417969 -11.425781 9.894531 -10.992188 10.539062 -10.992188 C 11.121094 -10.992188 11.574219 -11.425781 11.574219 -12.050781 C 11.574219 -13.902344 9.460938 -15.304688 6.726562 -15.304688 C 3.730469 -15.304688 1.507812 -13.621094 1.507812 -11.230469 C 1.507812 -8.621094 4.136719 -7.566406 6.316406 -6.683594 C 8.621094 -5.777344 10.625 -4.9375 10.625 -3.125 C 10.625 -1.445312 8.878906 -0.257812 6.421875 -0.257812 C 4.417969 -0.257812 2.757812 -1.035156 2.132812 -2.199219 L 2.285156 -2.199219 C 2.867188 -2.199219 3.320312 -2.652344 3.320312 -3.277344 C 3.320312 -3.902344 2.867188 -4.332031 2.285156 -4.332031 C 1.636719 -4.332031 1.164062 -3.902344 1.164062 -3.277344 C 1.164062 -1.292969 3.601562 0.214844 6.683594 0.214844 C 9.871094 0.214844 12.15625 -1.402344 12.15625 -3.921875 C 12.15625 -6.488281 9.785156 -7.414062 7.285156 -8.363281 Z M 7.285156 -8.363281 "/></g></g></g></svg>